<svg width="20" height="20" viewBox="0 0 20 20" fill="none" xmlns="http://www.w3.org/2000/svg">
<path d="M19.5102 17.1451C19.8238 17.4588 20 17.8841 20 18.3277C20 18.7712 19.8238 19.1966 19.5102 19.5102C19.1966 19.8238 18.7712 20 18.3277 20C17.8841 20 17.4588 19.8238 17.1451 19.5102L10 12.3484L2.85487 19.5102C2.54125 19.8238 2.11588 20 1.67235 20C1.22881 20 0.803444 19.8238 0.489819 19.5102C0.176193 19.1966 0 18.7712 0 18.3277C0 17.8841 0.176193 17.4588 0.489819 17.1451L7.6516 10L0.489819 2.85487C0.176193 2.54125 -3.30458e-09 2.11588 0 1.67235C3.30458e-09 1.22881 0.176193 0.803444 0.489819 0.489819C0.803444 0.176193 1.22881 3.30458e-09 1.67235 0C2.11588 -3.30458e-09 2.54125 0.176193 2.85487 0.489819L10 7.6516L17.1451 0.489819C17.4588 0.176193 17.8841 0 18.3277 0C18.7712 0 19.1966 0.176193 19.5102 0.489819C19.8238 0.803444 20 1.22881 20 1.67235C20 2.11588 19.8238 2.54125 19.5102 2.85487L12.3484 10L19.5102 17.1451Z" fill="#222221"/>
</svg>
