<svg width="50" height="50" viewBox="0 0 50 50" fill="none" xmlns="http://www.w3.org/2000/svg">
<g clip-path="url(#clip0_4_1136)">
<path d="M25 0.78125C38.3789 0.78125 49.2188 11.6211 49.2188 25C49.2188 38.3789 38.3789 49.2188 25 49.2188C11.6211 49.2188 0.78125 38.3789 0.78125 25C0.78125 11.6211 11.6211 0.78125 25 0.78125ZM22.1777 14.8047L29.5508 21.875H11.7188C10.4199 21.875 9.375 22.9199 9.375 24.2188V25.7812C9.375 27.0801 10.4199 28.125 11.7188 28.125H29.5508L22.1777 35.1953C21.2305 36.1035 21.2109 37.6172 22.1387 38.5449L23.2129 39.6094C24.1309 40.5273 25.6152 40.5273 26.5234 39.6094L39.4824 26.6602C40.4004 25.7422 40.4004 24.2578 39.4824 23.3496L26.5234 10.3809C25.6055 9.46289 24.1211 9.46289 23.2129 10.3809L22.1387 11.4453C21.2109 12.3828 21.2305 13.8965 22.1777 14.8047Z" fill="#DBDBDB"/>
</g>
<defs>
<clipPath id="clip0_4_1136">
<rect width="50" height="50" fill="white"/>
</clipPath>
</defs>
</svg>
