<svg width="50" height="50" viewBox="0 0 50 50" fill="none" xmlns="http://www.w3.org/2000/svg">
<path d="M50 25C50 38.8102 38.8061 50 25 50C11.1939 50 0 38.8102 0 25C0 11.1979 11.1939 0 25 0C38.8061 0 50 11.1979 50 25ZM25 30.0403C22.439 30.0403 20.3629 32.1164 20.3629 34.6774C20.3629 37.2384 22.439 39.3145 25 39.3145C27.561 39.3145 29.6371 37.2384 29.6371 34.6774C29.6371 32.1164 27.561 30.0403 25 30.0403ZM20.5975 13.3724L21.3453 27.0821C21.3802 27.7236 21.9107 28.2258 22.5531 28.2258H27.4469C28.0893 28.2258 28.6198 27.7236 28.6547 27.0821L29.4025 13.3724C29.4403 12.6794 28.8886 12.0968 28.1947 12.0968H21.8052C21.1113 12.0968 20.5597 12.6794 20.5975 13.3724Z" fill="#164DCA"/>
</svg>
